<?xml version="1.0" encoding="UTF-8"?>
<svg xmlns="http://www.w3.org/2000/svg" version="1.1" viewBox="0 0 166.97 166.97">
  <!-- Generator: Adobe Illustrator 30.8.1, SVG Export Plug-In . SVG Version: 2.1.4 Build 1)  -->
  <defs>
    <style>
      .st0 {
        fill: #2baae2;
      }

      .st1 {
        isolation: isolate;
      }

      .st2 {
        fill: #a7a9ac;
        mix-blend-mode: multiply;
      }

      .st3 {
        fill: #4e4e4e;
      }

      .st4 {
        fill: #010101;
      }
    </style>
  </defs>
  <g class="st1">
    <g id="Layer_1">
      <g>
        <g>
          <path class="st3" d="M162,83.51c0,43.39-35.19,78.58-78.6,78.58S4.8,126.9,4.8,83.51,39.99,4.91,83.4,4.91s78.6,35.19,78.6,78.6Z"/>
          <path class="st4" d="M157.03,83.51c-.27,30.51-19.39,58.77-48.35,69.18s-62.29,1.47-82.15-22.4-22.06-58.71-6.03-85.06C36.35,19.17,67.78,5.21,97.75,11.27c34.28,6.94,58.97,37.4,59.27,72.24.06,6.39,10,6.41,9.94,0-.3-34.94-22.18-66.42-55.03-78.54C79.1-7.16,40.65,3.49,18.67,30.69-3.27,57.86-6.32,96.82,11.91,126.8c18.15,29.84,53.6,45.27,87.82,38.65,38.86-7.52,66.89-42.72,67.23-81.94.06-6.4-9.88-6.4-9.94,0Z"/>
        </g>
        <g>
          <path class="st0" d="M49.31,72.38c0,10.13-5.24,18.35-11.73,18.35s-11.73-8.22-11.73-18.35,5.25-18.35,11.73-18.35,11.73,8.22,11.73,18.35Z"/>
          <path class="st4" d="M44.34,72.38c-.1,3.67-1.34,13.39-6.76,13.38s-6.77-9.67-6.76-13.38,1.4-13.38,6.76-13.38,6.66,9.76,6.76,13.38c.17,6.38,10.11,6.41,9.94,0-.26-9.62-4.95-23.32-16.69-23.32s-16.72,13.69-16.7,23.32,5.12,23.32,16.7,23.32,16.43-13.7,16.69-23.32c.17-6.4-9.77-6.39-9.94,0Z"/>
        </g>
        <path class="st4" d="M159.8,58.34c-6.69-4.32-14.44-7.71-22.17-9.55-5.81-1.39-12.19-1.95-17.95-.03-6.73,2.24-11.27,7.52-13.79,14-3.07,7.87-3.41,16.92-2.46,25.24.84,7.41,2.74,14.62,5.1,21.68,2.08,6.22,4.53,12.32,6.54,18.57.85,2.64,1.62,5.31,2.12,8.03.11.57.2,1.13.28,1.7-.11-.78.03.31.05.5.03.33.06.65.08.98.07,1.15.07,2.3-.03,3.44-.02.2-.16,1.05-.02.24-.05.27-.08.54-.14.81-.11.55-.25,1.1-.41,1.64-.07.23-.16.46-.24.69-.05.14-.11.27-.16.41.27-.7.09-.2.02-.06-.24.48-.48.97-.76,1.43-.13.21-.27.42-.41.63-.09.12-.18.25-.26.37-.32.45.37-.44.01-.02-.38.45-.76.88-1.17,1.29-.44.43-.9.83-1.38,1.22-.1.08-.37.27.09-.07-.14.11-.29.21-.43.32-.3.21-.6.42-.91.62-1.26.81-2.59,1.48-3.96,2.08-.67.3.46-.18-.23.1-.18.07-.36.14-.53.21-.4.16-.81.31-1.22.45-.87.31-1.76.59-2.64.85-4.28,1.26-8.71,2.05-13.14,2.6-2.87.36-5.76.62-8.64.83-1.34.1-2.48,1.07-2.48,2.48,0,1.27,1.14,2.58,2.48,2.48,9.27-.68,19.03-1.65,27.71-5.22,5.12-2.1,10.08-5.32,12.36-10.57,2.1-4.83,1.71-10.14.61-15.17-1.29-5.88-3.5-11.54-5.55-17.18-2.37-6.53-4.67-13.09-6.23-19.87-.86-3.74-1.42-7.02-1.71-10.55-.33-3.94-.32-7.91.12-11.84.26-2.33.69-4.64,1.32-6.9.55-1.97,1.1-3.48,1.93-5.09.39-.77.82-1.51,1.29-2.23.2-.31.42-.61.64-.92.41-.57-.19.23.07-.1.16-.19.31-.39.48-.58.49-.57,1.02-1.12,1.58-1.63.25-.22.5-.44.76-.65.49-.41-.28.2.04-.04.18-.14.37-.27.56-.4.56-.38,1.13-.73,1.73-1.05.31-.16.62-.32.94-.47.02,0,.59-.26.23-.1-.34.14.34-.13.41-.16,1.31-.49,2.66-.82,4.04-1.06.73-.13-.26.01.48-.07.35-.04.7-.07,1.06-.1.75-.05,1.49-.08,2.24-.07.66,0,1.31.03,1.97.08.4.03.79.06,1.19.1.21.02,1.35.16.72.08,2.9.4,5.75,1.11,8.54,2.01,1.34.43,2.67.91,3.98,1.42.57.22,1.14.46,1.71.69-.64-.27.32.14.48.21.35.15.69.3,1.03.46,3.13,1.41,6.19,3,9.11,4.8.15.09.31.19.46.29,2.69,1.74,5.19-2.56,2.51-4.29h0Z"/>
        <path class="st2" d="M9.01,108.85s136.03,47.59,140.21-68.29c0,0,40.05,46.5-18.83,105.92,0,0-68.63,22.64-121.38-37.62Z"/>
      </g>
    </g>
  </g>
</svg>